# xmcd CD database file
#
# Track frame offsets:
#	150
#	11605
#	29618
#	41188
#	59735
#	76288
#	89415
#	107010
#	116608
#	130998
#
# Disc length: 1943 seconds
#
# Revision: 5
# Processed by: cddbd v1.5.2PL0 Copyright (c) Steve Scherf et al.
# Submitted via: CDex 1.73
#
DISCID=8807950a
DTITLE=Vince Gill - 1991 - Pocket Full Of Gold
DYEAR=1991
DGENRE=Country
TTITLE0=I Quit
TTITLE1=Look At Us
TTITLE2=Take Your Memory With You
TTITLE3=Pocket Full Of Gold
TTITLE4=The Strings That Tie You Down
TTITLE5=Liza Jane
TTITLE6=If I Didn't Have You In My World
TTITLE7=A Little Left Over
TTITLE8=What's A Man To Do
TTITLE9=Sparkle
EXTD=YEAR: 1991
EXTT0=
EXTT1=
EXTT2=
EXTT3=
EXTT4=
EXTT5=
EXTT6=
EXTT7=
EXTT8=
EXTT9=
PLAYORDER=
